<?xml version="1.0" encoding="UTF-8" standalone="no"?>
<!-- Created with Inkscape (http://www.inkscape.org/) -->

<svg
   xmlns:dc="http://purl.org/dc/elements/1.1/"
   xmlns:cc="http://creativecommons.org/ns#"
   xmlns:rdf="http://www.w3.org/1999/02/22-rdf-syntax-ns#"
   xmlns:svg="http://www.w3.org/2000/svg"
   xmlns="http://www.w3.org/2000/svg"
   xmlns:sodipodi="http://sodipodi.sourceforge.net/DTD/sodipodi-0.dtd"
   xmlns:inkscape="http://www.inkscape.org/namespaces/inkscape"
   width="389.84479mm"
   height="89.796829mm"
   viewBox="0 0 389.84479 89.796829"
   version="1.1"
   id="svg8"
   inkscape:version="0.92.3 (2405546, 2018-03-11)"
   sodipodi:docname="SorokaLogo.svg">
  <defs
     id="defs2" />
  <sodipodi:namedview
     id="base"
     pagecolor="#ffffff"
     bordercolor="#666666"
     borderopacity="1.0"
     inkscape:pageopacity="0.0"
     inkscape:pageshadow="2"
     inkscape:zoom="0.7"
     inkscape:cx="748.41852"
     inkscape:cy="366.49521"
     inkscape:document-units="mm"
     inkscape:current-layer="layer1"
     showgrid="false"
     inkscape:window-width="1920"
     inkscape:window-height="1005"
     inkscape:window-x="-9"
     inkscape:window-y="-9"
     inkscape:window-maximized="1"
     fit-margin-top="0"
     fit-margin-left="0"
     fit-margin-right="0"
     fit-margin-bottom="0" />
  <metadata
     id="metadata5">
    <rdf:RDF>
      <cc:Work
         rdf:about="">
        <dc:format>image/svg+xml</dc:format>
        <dc:type
           rdf:resource="http://purl.org/dc/dcmitype/StillImage" />
        <dc:title></dc:title>
      </cc:Work>
    </rdf:RDF>
  </metadata>
  <g
     inkscape:label="Layer 1"
     inkscape:groupmode="layer"
     id="layer1"
     transform="translate(371.81526,-113.00635)">
    <g
       transform="matrix(0.84394747,0,0,0.84394747,-202.71547,34.038566)"
       id="g953">
      <path
         inkscape:connector-curvature="0"
         id="path945"
         style="fill:#0083d7;fill-opacity:1;fill-rule:evenodd;stroke:none;stroke-width:2.16985011"
         d="m 210.18036,158.3584 0.26036,1.74023 0.10856,0.97207 v 0.77032 1.0524 l -0.0437,0.97206 -0.1518,0.88965 -0.17358,0.97206 -0.19528,0.97213 -0.23865,0.93085 -0.28208,0.88965 -0.41228,0.80932 -0.36886,0.93307 -0.43394,0.80937 -0.45565,0.76811 -0.52078,0.80932 -0.52079,0.77032 -0.52078,0.72905 -0.60757,0.68784 -0.65095,0.6879 -0.69435,0.60769 -0.69435,0.56649 -0.71606,0.60769 -0.78114,0.52712 -0.71605,0.52528 -0.86793,0.4447 -0.80286,0.4859 -0.80284,0.36474 -0.93303,0.28417 -0.88964,0.32353 -0.88965,0.28416 -0.88963,0.24296 -0.97643,0.12178 -0.97643,0.16054 -0.97643,0.0824 h -0.99805 -0.88963 l -0.88964,-0.0824 -0.88964,-0.16054 -0.82453,-0.043 -1.73589,-0.48591 -0.75945,-0.20175 -0.82454,-0.32537 -0.80285,-0.28232 -0.75944,-0.36474 -0.73776,-0.40595 -0.75944,-0.36474 -0.65095,-0.4447 -0.69436,-0.52527 -0.69436,-0.44716 -0.65095,-0.60524 0.97643,0.28232 0.88965,0.32353 0.97643,0.20421 1.06322,0.16053 0.95474,0.163 0.97643,0.16299 h 1.06322 l 1.04153,0.0369 1.06324,-0.0369 1.08492,-0.0824 1.06323,-0.0806 1.04153,-0.163 0.97643,-0.20174 1.04153,-0.32353 0.97643,-0.20421 0.97643,-0.40349 0.97644,-0.36474 0.93303,-0.4447 0.95474,-0.4447 0.82453,-0.44716 0.88965,-0.52527 0.84624,-0.6077 0.80284,-0.60769 0.82454,-0.6077 0.75945,-0.6879 0.73775,-0.68784 0.67265,-0.72905 0.69436,-0.77032 0.65095,-0.72689 0.60757,-0.85053 0.52079,-0.80938 0.60757,-0.8918 0.45565,-0.85058 0.52078,-0.96992 0.36886,-0.89179 0.434,-0.97213 0.3255,-1.01112 0.36886,-0.97213 0.23865,-0.97207 z" />
      <path
         inkscape:connector-curvature="0"
         id="path947"
         style="fill:#0083d7;fill-opacity:1;fill-rule:evenodd;stroke:none;stroke-width:2.16985011"
         d="m 209.37752,132.85398 -0.3255,-1.70117 -0.0867,-0.97207 -0.0215,-0.76817 0.0215,-1.05233 0.0867,-0.97213 0.0867,-0.8918 0.23871,-1.01112 0.13022,-0.97213 0.32549,-0.88964 0.28208,-0.8918 0.39057,-0.85059 0.36886,-0.88964 0.36886,-0.80932 0.52079,-0.77032 0.45565,-0.80932 0.52078,-0.76816 0.60757,-0.77026 0.60757,-0.64663 0.65096,-0.68999 0.60757,-0.60524 0.75944,-0.60769 0.65096,-0.6077 0.78114,-0.52712 0.80286,-0.52527 0.84624,-0.44716 0.80284,-0.4447 0.82455,-0.36474 0.88962,-0.32353 0.93305,-0.28417 0.88963,-0.28232 0.88964,-0.24295 0.97643,-0.163 0.95479,-0.12117 0.97643,-0.0806 h 0.97644 0.93303 l 0.88964,0.0806 0.80284,0.12117 0.88964,0.0824 1.67078,0.4447 0.80286,0.24296 0.84623,0.28232 0.73775,0.32537 0.84624,0.36474 0.73775,0.36228 0.67266,0.40595 0.73774,0.4447 0.69436,0.52712 0.67265,0.4447 0.65096,0.6077 -0.97644,-0.32353 -0.95474,-0.28417 -0.97643,-0.24295 -0.97644,-0.12179 -0.97643,-0.16053 -1.04152,-0.163 h -0.97644 l -1.06322,-0.08 -1.12832,0.08 -1.04152,0.0806 -1.01983,0.0824 -1.04154,0.16053 -1.06322,0.20175 -0.97643,0.32537 -0.97643,0.20175 -0.95474,0.36474 -1.01984,0.40595 -0.97643,0.4447 -0.88963,0.4447 -0.88964,0.44469 -0.80284,0.52712 -0.93305,0.6077 -0.73774,0.60769 -0.80284,0.60524 -0.75945,0.64878 -0.78115,0.68784 -0.65095,0.77026 -0.67265,0.7269 -0.65096,0.77032 -0.60757,0.80937 -0.60757,0.85053 -0.54243,0.88965 -0.52079,0.81153 -0.434,1.01118 -0.45564,0.88959 -0.36887,0.97212 -0.39057,0.97207 -0.28207,0.97212 -0.26036,0.97207 z" />
      <path
         inkscape:connector-curvature="0"
         id="path949"
         d="m 220.22677,136.86169 c 0.40461,-4.66699 1.75556,-9.54168 5.25647,-12.85991 4.55027,-4.49081 11.69263,-5.86783 17.7439,-4.06429 4.14465,1.20541 7.21753,4.36289 10.25646,7.2598 5.54445,4.86007 8.62853,12.34868 7.99779,19.70885 -0.37478,6.31176 -3.62031,12.20482 -8.22949,16.44994 -9.21315,9.19391 -18.30355,18.51775 -27.59374,27.63011 -4.16883,3.77468 -9.65744,6.09491 -15.30742,6.21329 -6.4359,0.24584 -12.84752,-2.3355 -17.41595,-6.84858 -2.69236,-2.63754 -5.33735,-5.32818 -8.0115,-7.98613 6.47147,5.17493 15.94443,6.37253 23.44303,2.73972 4.38288,-2.01246 8.01917,-5.54732 10.30837,-9.7761 2.40705,-4.3384 3.64316,-9.28189 3.64129,-14.23272 -0.4441,-7.98273 -2.38708,-15.85312 -2.08914,-23.8863 l -4e-5,-0.21872 z"
         style="fill:#14902d;fill-opacity:1;fill-rule:evenodd;stroke:none;stroke-width:2.16985011" />
      <path
         inkscape:connector-curvature="0"
         id="path951"
         d="m 199.17921,153.94493 c -0.36466,5.14204 -2.10055,10.56352 -6.3278,13.8281 -4.58116,3.67054 -11.08801,4.73356 -16.67259,3.05552 -3.52543,-1.09555 -6.43413,-3.44434 -8.94318,-6.08161 -2.77701,-2.4433 -5.33265,-5.18261 -6.9366,-8.5502 -3.59499,-7.2855 -3.16405,-16.37342 1.23716,-23.22316 2.69548,-4.22547 6.72857,-7.33898 10.10208,-10.99311 7.48959,-7.45588 14.83144,-15.0676 22.41421,-22.425223 4.1703,-3.691358 9.62689,-5.90619 15.22062,-5.977358 5.27128,-0.143539 10.53102,1.571584 14.73474,4.745597 3.57804,2.822884 6.53478,6.362234 9.84781,9.488814 1.44633,1.45713 -0.98515,-0.75668 -1.64337,-0.91412 -4.77997,-3.15697 -10.92012,-3.90202 -16.47678,-2.8315 -6.99795,1.44581 -12.93318,6.57075 -15.8157,13.05137 -2.07133,4.14882 -2.91733,8.85292 -2.76729,13.46496 0.52178,7.79941 2.43148,15.51343 2.02669,23.36192 z"
         style="fill:#14902d;fill-opacity:1;fill-rule:evenodd;stroke:none;stroke-width:2.16985011" />
    </g>
    <path
       d="m -132.95913,137.32248 v -15.01741 h 55.391098 v 35.17539 q 0,7.97076 -4.331946,13.34238 -2.137086,2.5414 -5.949187,4.56298 h -31.305515 q -8.66389,-5.25609 -8.66389,-16.75019 v -21.31315 z m 22.35281,20.38901 q 0,2.71468 2.4259,2.71468 h 11.032012 q 2.483648,0 2.483648,-2.71468 v -20.38901 h -15.94156 z"
       style="font-style:normal;font-variant:normal;font-weight:normal;font-stretch:normal;font-size:medium;line-height:1.25;font-family:KalisherBlackRegular;-inkscape-font-specification:KalisherBlackRegular;letter-spacing:0.97102082px;word-spacing:0px;opacity:1;fill:#4b6db5;fill-opacity:1;stroke:none;stroke-width:2.95727301"
       id="path997"
       inkscape:connector-curvature="0" />
    <path
       d="m -165.82845,137.32248 v -15.01741 h 23.91232 v 53.08075 h -17.32779 v -38.06334 z"
       style="font-style:normal;font-variant:normal;font-weight:normal;font-stretch:normal;font-size:medium;line-height:1.25;font-family:KalisherBlackRegular;-inkscape-font-specification:KalisherBlackRegular;letter-spacing:0.97102082px;word-spacing:0px;opacity:1;fill:#4b6db5;fill-opacity:1;stroke:none;stroke-width:2.95727301"
       id="path999"
       inkscape:connector-curvature="0" />
    <path
       d="m -217.29629,137.32248 v -15.01741 h 34.7133 q 3.92763,2.59917 5.54489,5.37161 1.96381,3.35003 1.96381,8.83717 v 38.87197 h -17.32776 v -35.984 q 0,-2.07934 -2.19487,-2.07934 z"
       style="font-style:normal;font-variant:normal;font-weight:normal;font-stretch:normal;font-size:medium;line-height:1.25;font-family:KalisherBlackRegular;-inkscape-font-specification:KalisherBlackRegular;letter-spacing:0.97102082px;word-spacing:0px;opacity:1;fill:#4b6db5;fill-opacity:1;stroke:none;stroke-width:2.95727301"
       id="path1001"
       inkscape:connector-curvature="0" />
    <path
       d="m -250.39665,137.32248 v -15.01741 h 23.91232 v 53.08075 h -17.32778 v -38.06334 z"
       style="font-style:normal;font-variant:normal;font-weight:normal;font-stretch:normal;font-size:medium;line-height:1.25;font-family:KalisherBlackRegular;-inkscape-font-specification:KalisherBlackRegular;letter-spacing:0.97102082px;word-spacing:0px;opacity:1;fill:#4b6db5;fill-opacity:1;stroke:none;stroke-width:2.95727301"
       id="path1003"
       inkscape:connector-curvature="0" />
    <path
       d="m -313.64738,137.32248 v -15.01741 h 54.52474 v 15.01741 c 0,5.69891 -2.13709,12.12943 -6.41128,19.29157 l -11.26305,18.77177 -13.74669,-9.01046 17.38551,-29.05288 h -20.85108 v 56.77964 l -17.32776,8.70106 v -52.02281 c 0,-2.88794 1.86755,-7.37392 5.60265,-13.45789 z"
       style="font-style:normal;font-variant:normal;font-weight:normal;font-stretch:normal;font-size:medium;line-height:1.25;font-family:KalisherBlackRegular;-inkscape-font-specification:KalisherBlackRegular;letter-spacing:0.97102082px;word-spacing:0px;opacity:1;fill:#4b6db5;fill-opacity:1;stroke:none;stroke-width:2.95727301"
       id="path1005"
       inkscape:connector-curvature="0"
       sodipodi:nodetypes="cccscccccccscc" />
    <path
       d="m -371.81526,137.32248 v -15.01741 h 49.32638 v 53.08075 h -17.44326 v -38.06334 z m 0.34657,38.06334 v -16.8657 q 0,-5.02507 3.86985,-12.30273 h 13.57344 v 29.16843 z"
       style="font-style:normal;font-variant:normal;font-weight:normal;font-stretch:normal;font-size:medium;line-height:1.25;font-family:KalisherBlackRegular;-inkscape-font-specification:KalisherBlackRegular;letter-spacing:0.97102082px;word-spacing:0px;opacity:1;fill:#4b6db5;fill-opacity:1;stroke:none;stroke-width:2.95727301"
       id="path1007"
       inkscape:connector-curvature="0" />
    <g
       aria-label="מרכז רפואי אוניברסיטאי"
       style="font-style:normal;font-variant:normal;font-weight:normal;font-stretch:normal;font-size:26.60068893px;line-height:1.25;font-family:KalisherBold;-inkscape-font-specification:KalisherBold;letter-spacing:0.017977px;word-spacing:-3.33773327px;opacity:1;fill:#4b6db5;fill-opacity:1;stroke:none;stroke-width:0.66501725"
       id="text973">
      <path
         d="m -87.89093,188.90769 v -2.58474 h 9.247895 q 1.857373,0.96116 1.857373,3.46796 v 8.46858 h -5.520163 v -2.58473 h 2.662667 v -6.28649 q 0,-0.48058 -0.480579,-0.48058 h -4.091415 v 9.3518 h -2.870484 v -6.81902 q 0,-1.27289 1.026101,-2.53278 z"
         style="font-style:normal;font-variant:normal;font-weight:normal;font-stretch:normal;font-family:KalisherBold;-inkscape-font-specification:KalisherBold;letter-spacing:0.017977px;word-spacing:-3.33773327px;opacity:1;fill:#4b6db5;fill-opacity:1;stroke-width:0.66501725"
         id="path832"
         inkscape:connector-curvature="0" />
      <path
         d="m -99.05314,188.90769 v -2.58474 h 7.637307 q 1.610589,1.07806 1.610589,3.46796 v 8.46858 h -2.844507 v -8.87122 q 0,-0.48058 -0.493568,-0.48058 z"
         style="font-style:normal;font-variant:normal;font-weight:normal;font-stretch:normal;font-family:KalisherBold;-inkscape-font-specification:KalisherBold;letter-spacing:0.017977px;word-spacing:-3.33773327px;opacity:1;fill:#4b6db5;fill-opacity:1;stroke-width:0.66501725"
         id="path834"
         inkscape:connector-curvature="0" />
      <path
         d="m -110.00754,198.25949 v -2.58473 h 5.87085 q 0.51955,0 0.51955,-0.58449 v -5.5981 q 0,-0.58448 -0.5715,-0.58448 h -5.8189 v -2.58474 h 7.2996 q 0.89621,0.48058 1.44174,1.4807 0.55851,1.00013 0.55851,2.23405 v 4.19532 q 0,2.46784 -2.02623,4.02647 z"
         style="font-style:normal;font-variant:normal;font-weight:normal;font-stretch:normal;font-family:KalisherBold;-inkscape-font-specification:KalisherBold;letter-spacing:0.017977px;word-spacing:-3.33773327px;opacity:1;fill:#4b6db5;fill-opacity:1;stroke-width:0.66501725"
         id="path836"
         inkscape:connector-curvature="0" />
      <path
         d="m -117.6888,188.90769 v -2.58474 h 6.09166 v 2.58474 h -1.74048 v 9.3518 h -2.8445 v -6.45534 q 0,-1.33783 1.13001,-2.89646 z"
         style="font-style:normal;font-variant:normal;font-weight:normal;font-stretch:normal;font-family:KalisherBold;-inkscape-font-specification:KalisherBold;letter-spacing:0.017977px;word-spacing:-3.33773327px;opacity:1;fill:#4b6db5;fill-opacity:1;stroke-width:0.66501725"
         id="path838"
         inkscape:connector-curvature="0" />
      <path
         d="m -135.32467,188.90769 v -2.58474 h 7.63731 q 1.61059,1.07806 1.61059,3.46796 v 8.46858 h -2.84451 v -8.87122 q 0,-0.48058 -0.49357,-0.48058 z"
         style="font-style:normal;font-variant:normal;font-weight:normal;font-stretch:normal;font-family:KalisherBold;-inkscape-font-specification:KalisherBold;letter-spacing:0.017977px;word-spacing:-3.33773327px;opacity:1;fill:#4b6db5;fill-opacity:1;stroke-width:0.66501725"
         id="path840"
         inkscape:connector-curvature="0" />
      <path
         d="m -146.9155,198.25949 v -2.58473 h 6.48132 q 0.53253,0 0.53253,-0.58449 v -5.5981 q 0,-0.58448 -0.58448,-0.58448 h -3.66279 v 2.14312 h 2.15611 v 2.55876 h -4.92269 v -7.28662 h 8.03995 q 1.85738,1.00012 1.85738,3.71475 v 4.45509 q 0,2.36393 -1.96129,3.7667 z"
         style="font-style:normal;font-variant:normal;font-weight:normal;font-stretch:normal;font-family:KalisherBold;-inkscape-font-specification:KalisherBold;letter-spacing:0.017977px;word-spacing:-3.33773327px;opacity:1;fill:#4b6db5;fill-opacity:1;stroke-width:0.66501725"
         id="path842"
         inkscape:connector-curvature="0" />
      <path
         d="m -153.85642,188.90769 v -2.58474 h 4.59797 v 11.93654 h -2.8575 v -9.3518 z"
         style="font-style:normal;font-variant:normal;font-weight:normal;font-stretch:normal;font-family:KalisherBold;-inkscape-font-specification:KalisherBold;letter-spacing:0.017977px;word-spacing:-3.33773327px;opacity:1;fill:#4b6db5;fill-opacity:1;stroke-width:0.66501725"
         id="path844"
         inkscape:connector-curvature="0" />
      <path
         d="m -166.60324,187.59584 2.1691,-1.81841 5.92281,6.89696 v -6.35144 h 2.87048 v 3.03934 q 0,1.13001 -0.71437,2.46784 -0.0909,0.2208 -1.23392,1.88334 l 2.71462,3.20819 -2.13013,1.80542 -6.42937,-7.45547 v 6.98788 h -2.87048 v -3.68877 q 0,-1.00012 0.76632,-2.49381 0.20782,-0.42863 1.20795,-1.88335 z"
         style="font-style:normal;font-variant:normal;font-weight:normal;font-stretch:normal;font-family:KalisherBold;-inkscape-font-specification:KalisherBold;letter-spacing:0.017977px;word-spacing:-3.33773327px;opacity:1;fill:#4b6db5;fill-opacity:1;stroke-width:0.66501725"
         id="path846"
         inkscape:connector-curvature="0" />
      <path
         d="m -173.01162,188.90769 v -2.58474 h 4.59797 v 6.9619 h -2.85749 v -4.37716 z"
         style="font-style:normal;font-variant:normal;font-weight:normal;font-stretch:normal;font-family:KalisherBold;-inkscape-font-specification:KalisherBold;letter-spacing:0.017977px;word-spacing:-3.33773327px;opacity:1;fill:#4b6db5;fill-opacity:1;stroke-width:0.66501725"
         id="path848"
         inkscape:connector-curvature="0" />
      <path
         d="m -192.25808,187.59584 2.1691,-1.81841 5.92281,6.89696 v -6.35144 h 2.87048 v 3.03934 q 0,1.13001 -0.71437,2.46784 -0.0909,0.2208 -1.23392,1.88334 l 2.71462,3.20819 -2.13013,1.80542 -6.42937,-7.45547 v 6.98788 h -2.87048 v -3.68877 q 0,-1.00012 0.76633,-2.49381 0.20781,-0.42863 1.20794,-1.88335 z"
         style="font-style:normal;font-variant:normal;font-weight:normal;font-stretch:normal;font-family:KalisherBold;-inkscape-font-specification:KalisherBold;letter-spacing:0.017977px;word-spacing:-3.33773327px;opacity:1;fill:#4b6db5;fill-opacity:1;stroke-width:0.66501725"
         id="path850"
         inkscape:connector-curvature="0" />
      <path
         d="m -198.77036,188.90769 v -2.58474 h 4.59797 v 11.93654 h -2.8575 v -9.3518 z"
         style="font-style:normal;font-variant:normal;font-weight:normal;font-stretch:normal;font-family:KalisherBold;-inkscape-font-specification:KalisherBold;letter-spacing:0.017977px;word-spacing:-3.33773327px;opacity:1;fill:#4b6db5;fill-opacity:1;stroke-width:0.66501725"
         id="path852"
         inkscape:connector-curvature="0" />
      <path
         d="m -206.39967,198.25949 v -2.58473 h 2.44186 q 0.42862,0 0.42862,-0.48058 v -6.28649 h -1.9353 v -2.58474 h 4.81878 v 9.06606 q 0,1.89633 -1.40277,2.87048 z"
         style="font-style:normal;font-variant:normal;font-weight:normal;font-stretch:normal;font-family:KalisherBold;-inkscape-font-specification:KalisherBold;letter-spacing:0.017977px;word-spacing:-3.33773327px;opacity:1;fill:#4b6db5;fill-opacity:1;stroke-width:0.66501725"
         id="path854"
         inkscape:connector-curvature="0" />
      <path
         d="m -212.73012,188.90769 v -2.58474 h 4.59797 v 6.9619 h -2.85749 v -4.37716 z"
         style="font-style:normal;font-variant:normal;font-weight:normal;font-stretch:normal;font-family:KalisherBold;-inkscape-font-specification:KalisherBold;letter-spacing:0.017977px;word-spacing:-3.33773327px;opacity:1;fill:#4b6db5;fill-opacity:1;stroke-width:0.66501725"
         id="path856"
         inkscape:connector-curvature="0" />
      <path
         d="m -223.73646,198.25949 v -2.58473 h 5.90982 v -6.28649 q 0,-0.48058 -0.4546,-0.48058 h -5.45522 v -2.58474 h 7.33857 q 1.44173,0.8053 1.44173,2.61071 v 4.42912 q 0,1.23392 -1.0261,2.31198 h 2.15611 v 2.58473 z"
         style="font-style:normal;font-variant:normal;font-weight:normal;font-stretch:normal;font-family:KalisherBold;-inkscape-font-specification:KalisherBold;letter-spacing:0.017977px;word-spacing:-3.33773327px;opacity:1;fill:#4b6db5;fill-opacity:1;stroke-width:0.66501725"
         id="path858"
         inkscape:connector-curvature="0" />
      <path
         d="m -234.95063,188.90769 v -2.58474 h 7.63731 q 1.61058,1.07806 1.61058,3.46796 v 8.46858 h -2.8445 v -8.87122 q 0,-0.48058 -0.49357,-0.48058 z"
         style="font-style:normal;font-variant:normal;font-weight:normal;font-stretch:normal;font-family:KalisherBold;-inkscape-font-specification:KalisherBold;letter-spacing:0.017977px;word-spacing:-3.33773327px;opacity:1;fill:#4b6db5;fill-opacity:1;stroke-width:0.66501725"
         id="path860"
         inkscape:connector-curvature="0" />
      <path
         d="m -248.29493,188.90769 v -2.58474 h 11.417 v 7.22167 q 0,3.50693 -2.14312,4.71487 h -6.15661 q -1.94829,-1.10403 -1.94829,-4.29923 v -5.05257 z m 4.03946,6.11764 q 0,0.64943 0.66242,0.64943 h 3.18221 q 0.6884,0 0.6884,-0.64943 v -6.11764 h -4.53303 z"
         style="font-style:normal;font-variant:normal;font-weight:normal;font-stretch:normal;font-family:KalisherBold;-inkscape-font-specification:KalisherBold;letter-spacing:0.017977px;word-spacing:-3.33773327px;opacity:1;fill:#4b6db5;fill-opacity:1;stroke-width:0.66501725"
         id="path862"
         inkscape:connector-curvature="0" />
      <path
         d="m -254.62538,188.90769 v -2.58474 h 4.59798 v 6.9619 h -2.8575 v -4.37716 z"
         style="font-style:normal;font-variant:normal;font-weight:normal;font-stretch:normal;font-family:KalisherBold;-inkscape-font-specification:KalisherBold;letter-spacing:0.017977px;word-spacing:-3.33773327px;opacity:1;fill:#4b6db5;fill-opacity:1;stroke-width:0.66501725"
         id="path864"
         inkscape:connector-curvature="0" />
      <path
         d="m -266.81369,194.73958 v -8.41663 h 2.84451 v 8.70238 q 0,0.64943 0.66242,0.64943 h 3.29911 q 0.62345,0 0.62345,-0.64943 v -6.11764 h -2.48082 v -2.58474 h 5.35131 v 8.09191 q 0,2.63669 -2.15611,3.84463 h -6.42937 q -1.7145,-1.05208 -1.7145,-3.51991 z"
         style="font-style:normal;font-variant:normal;font-weight:normal;font-stretch:normal;font-family:KalisherBold;-inkscape-font-specification:KalisherBold;letter-spacing:0.017977px;word-spacing:-3.33773327px;opacity:1;fill:#4b6db5;fill-opacity:1;stroke-width:0.66501725"
         id="path866"
         inkscape:connector-curvature="0" />
      <path
         d="m -280.06706,187.59584 2.1691,-1.81841 5.92281,6.89696 v -6.35144 h 2.87048 v 3.03934 q 0,1.13001 -0.71437,2.46784 -0.0909,0.2208 -1.23392,1.88334 l 2.71462,3.20819 -2.13013,1.80542 -6.42937,-7.45547 v 6.98788 h -2.87049 v -3.68877 q 0,-1.00012 0.76633,-2.49381 0.20782,-0.42863 1.20794,-1.88335 z"
         style="font-style:normal;font-variant:normal;font-weight:normal;font-stretch:normal;font-family:KalisherBold;-inkscape-font-specification:KalisherBold;letter-spacing:0.017977px;word-spacing:-3.33773327px;opacity:1;fill:#4b6db5;fill-opacity:1;stroke-width:0.66501725"
         id="path868"
         inkscape:connector-curvature="0" />
      <path
         d="m -286.47544,188.90769 v -2.58474 h 4.59797 v 6.9619 h -2.85749 v -4.37716 z"
         style="font-style:normal;font-variant:normal;font-weight:normal;font-stretch:normal;font-family:KalisherBold;-inkscape-font-specification:KalisherBold;letter-spacing:0.017977px;word-spacing:-3.33773327px;opacity:1;fill:#4b6db5;fill-opacity:1;stroke-width:0.66501725"
         id="path870"
         inkscape:connector-curvature="0" />
    </g>
  </g>
</svg>
